<?xml version="1.0" encoding="UTF-8" standalone="no"?>
<!-- Created with Inkscape (http://www.inkscape.org/) -->

<svg
   xmlns:dc="http://purl.org/dc/elements/1.1/"
   xmlns:cc="http://creativecommons.org/ns#"
   xmlns:rdf="http://www.w3.org/1999/02/22-rdf-syntax-ns#"
   xmlns:svg="http://www.w3.org/2000/svg"
   xmlns="http://www.w3.org/2000/svg"
   xmlns:sodipodi="http://sodipodi.sourceforge.net/DTD/sodipodi-0.dtd"
   xmlns:inkscape="http://www.inkscape.org/namespaces/inkscape"
   width="800"
   height="800"
   viewBox="0 0 211.66666 211.66667"
   version="1.1"
   id="svg8"
   inkscape:version="0.92.2 (5c3e80d, 2017-08-06)"
   sodipodi:docname="Invader.svg"
   inkscape:export-filename="C:\Users\Jordan\Dropbox\Jordan team folder\Personal Projects\DIY Space Invaders\src\Images\Enemy.png"
   inkscape:export-xdpi="4.0853934"
   inkscape:export-ydpi="4.0853934">
  <defs
     id="defs2" />
  <sodipodi:namedview
     id="base"
     pagecolor="#ffffff"
     bordercolor="#666666"
     borderopacity="1.0"
     inkscape:pageopacity="0.0"
     inkscape:pageshadow="2"
     inkscape:zoom="0.67253785"
     inkscape:cx="95.378781"
     inkscape:cy="337.04192"
     inkscape:document-units="mm"
     inkscape:current-layer="layer1"
     showgrid="false"
     units="px"
     inkscape:window-width="1920"
     inkscape:window-height="1017"
     inkscape:window-x="-8"
     inkscape:window-y="-8"
     inkscape:window-maximized="1" />
  <metadata
     id="metadata5">
    <rdf:RDF>
      <cc:Work
         rdf:about="">
        <dc:format>image/svg+xml</dc:format>
        <dc:type
           rdf:resource="http://purl.org/dc/dcmitype/StillImage" />
        <dc:title />
      </cc:Work>
    </rdf:RDF>
  </metadata>
  <g
     inkscape:label="Layer 1"
     inkscape:groupmode="layer"
     id="layer1"
     transform="translate(0,-85.333317)">
    <path
       style="fill:#800000;fill-opacity:1;stroke:#ffffff;stroke-width:1.85208333;stroke-linecap:butt;stroke-linejoin:miter;stroke-miterlimit:4;stroke-dasharray:none;stroke-opacity:1"
       d="m 13.622577,241.24471 c 26.410253,-17.73505 58.150365,-24.81037 92.604163,-26.45833 40.98377,0.95167 69.70959,11.4373 92.60417,26.45833 -17.20099,48.09407 -60.68618,47.42518 -92.60417,52.91667 -49.407014,-3.00287 -81.490779,-19.68199 -92.604163,-52.91667 z"
       id="path817"
       inkscape:connector-curvature="0"
       sodipodi:nodetypes="ccccc" />
    <path
       style="fill:#000000;fill-opacity:0.160804;stroke:#ffffff;stroke-width:1.85208333;stroke-linecap:butt;stroke-linejoin:miter;stroke-miterlimit:4;stroke-dasharray:none;stroke-opacity:1"
       d="m 13.622577,241.24471 c 2.57275,-40.27071 0.175181,-81.64593 19.84375,-118.11756 23.313666,-12.25341 47.432743,-19.67436 72.760413,-19.84374 25.31761,4.4863 53.02918,4.18469 72.76042,19.84374 15.71329,35.9605 20.19745,76.13194 19.84375,118.11756 v 0"
       id="path819"
       inkscape:connector-curvature="0"
       sodipodi:nodetypes="cccccc" />
    <ellipse
       style="fill:#00e300;fill-opacity:0.51256283;stroke:none;stroke-width:0.26458332;stroke-miterlimit:4;stroke-dasharray:none;stroke-opacity:1"
       id="path821"
       cx="105.09281"
       cy="148.26256"
       rx="28.348215"
       ry="26.458332" />
    <path
       style="fill:#00e300;fill-opacity:0.49803922;stroke:none;stroke-width:0.26458332px;stroke-linecap:butt;stroke-linejoin:miter;stroke-opacity:1"
       d="m 102.09562,174.34825 -0.37266,8.68813 -14.064962,1.85262 -10.189388,19.20758 2.704393,29.30118 7.825704,-0.74531 3.172871,-34.8696 h 8.198357 l -1.080692,17.37618 17.333667,-0.29804 -0.66545,-17.8128 11.30735,9.28437 10.1255,26.26668 12.51048,0.72401 -11.03584,-30.66931 -10.29054,-17.25381 -14.85286,-1.28831 -0.8092,-10.17874 z"
       id="path823"
       inkscape:connector-curvature="0"
       sodipodi:nodetypes="ccccccccccccccccccc" />
    <path
       style="fill:#00e300;fill-opacity:0.49803922;stroke:none;stroke-width:0.26458332px;stroke-linecap:butt;stroke-linejoin:miter;stroke-opacity:1"
       d="m 90.947986,125.45623 c -3.24967,-3.71707 -4.818406,-8.77889 -6.847614,-13.47233 -5.016805,4.26975 -11.287924,5.61276 -17.00215,8.2552 l 15.827356,-3.49374 c 3.437456,2.81487 4.011772,7.19488 5.258649,10.49654 z"
       id="path827"
       inkscape:connector-curvature="0"
       sodipodi:nodetypes="cccccc" />
    <path
       style="fill:#00e300;fill-opacity:0.49803922;stroke:none;stroke-width:0.26458332px;stroke-linecap:butt;stroke-linejoin:miter;stroke-opacity:1"
       d="m 114.79775,123.22032 c 2.8696,-3.61286 2.85832,-8.87193 4.09918,-13.4155 5.31944,3.11127 12.04907,4.24828 18.63263,5.58979 l -16.41747,-1.22174 c -1.81046,3.21703 -3.1543,6.5896 -3.39718,10.32916 z"
       id="path829"
       inkscape:connector-curvature="0"
       sodipodi:nodetypes="cccccc" />
    <circle
       style="fill:#000000;fill-opacity:0.71356788;stroke:none;stroke-width:0.24352825;stroke-miterlimit:4;stroke-dasharray:none;stroke-opacity:1"
       id="path831"
       cx="96.410736"
       cy="139.61064"
       r="7.5" />
    <circle
       style="fill:#000000;fill-opacity:0.71356788;stroke:none;stroke-width:0.24352825;stroke-miterlimit:4;stroke-dasharray:none;stroke-opacity:1"
       id="path831-8"
       cx="113.69558"
       cy="138.84903"
       r="7.5"
       inkscape:transform-center-x="-9.8352583"
       inkscape:transform-center-y="14.949593" />
    <rect
       style="fill:#000000;fill-opacity:0.71356788;stroke:none;stroke-width:0.26458332;stroke-miterlimit:4;stroke-dasharray:none;stroke-opacity:1"
       id="rect848"
       width="10.228668"
       height="2.3604617"
       x="105.43397"
       y="158.12613" />
  </g>
</svg>
